<?xml version="1.0" encoding="UTF-8" standalone="no"?>
<svg
   xmlns:dc="http://purl.org/dc/elements/1.1/"
   xmlns:cc="http://creativecommons.org/ns#"
   xmlns:rdf="http://www.w3.org/1999/02/22-rdf-syntax-ns#"
   xmlns:svg="http://www.w3.org/2000/svg"
   xmlns="http://www.w3.org/2000/svg"
   xmlns:sodipodi="http://sodipodi.sourceforge.net/DTD/sodipodi-0.dtd"
   xmlns:inkscape="http://www.inkscape.org/namespaces/inkscape"
   version="1.1"
   id="_x32_"
   x="0px"
   y="0px"
   viewBox="0 0 40 40"
   style="opacity:1"
   xml:space="preserve"
   sodipodi:docname="foto.svg"
   width="40"
   height="40"
   inkscape:version="1.0 (4035a4fb49, 2020-05-01)"><metadata
   id="metadata19"><rdf:RDF><cc:Work
       rdf:about=""><dc:format>image/svg+xml</dc:format><dc:type
         rdf:resource="http://purl.org/dc/dcmitype/StillImage" /><dc:title></dc:title></cc:Work></rdf:RDF></metadata><defs
   id="defs17" /><sodipodi:namedview
   inkscape:document-rotation="0"
   pagecolor="#ffffff"
   bordercolor="#666666"
   borderopacity="1"
   objecttolerance="10"
   gridtolerance="10"
   guidetolerance="10"
   inkscape:pageopacity="0"
   inkscape:pageshadow="2"
   inkscape:window-width="1903"
   inkscape:window-height="1292"
   id="namedview15"
   showgrid="false"
   inkscape:zoom="4.6514368"
   inkscape:cx="127.75745"
   inkscape:cy="72.225118"
   inkscape:window-x="5"
   inkscape:window-y="0"
   inkscape:window-maximized="0"
   inkscape:current-layer="_x32_" />
<style
   type="text/css"
   id="style2">
	.st0{fill:#4B4B4B;}
</style>
<g
   id="g12"
   transform="scale(0.07916557)">
	<path
   class="st0"
   d="M 78.01,78.01 V 512 H 512 V 78.01 Z M 472.987,472.987 H 117.022 V 117.022 h 355.965 z"
   style="fill:#4b4b4b"
   id="path4" />
	<path
   class="st0"
   d="m 142.17,404.714 h 305.67 c 3.055,0 5.859,-1.676 7.306,-4.366 1.448,-2.681 1.303,-5.95 -0.381,-8.494 L 359.911,248.138 c -3.84,-5.82 -10.346,-9.316 -17.324,-9.316 -6.971,0.015 -13.476,3.519 -17.308,9.355 L 258.46,349.863 221.581,308.062 c -4.281,-4.845 -10.574,-7.427 -17.019,-6.962 -6.452,0.457 -12.319,3.901 -15.861,9.301 l -53.464,81.469 c -1.676,2.552 -1.813,5.805 -0.365,8.487 1.447,2.688 4.251,4.357 7.298,4.357 z"
   style="fill:#4b4b4b"
   id="path6" />
	<path
   class="st0"
   d="m 220.065,269.4 c 23.228,0 42.053,-18.824 42.053,-42.052 0,-23.228 -18.825,-42.052 -42.053,-42.052 -23.228,0 -42.06,18.824 -42.06,42.052 0,23.228 18.832,42.052 42.06,42.052 z"
   style="fill:#4b4b4b"
   id="path8" />
	<polygon
   class="st0"
   points="39.013,433.99 39.013,394.978 39.013,39.013 394.978,39.013 433.99,39.013 433.99,0 0,0 0,433.99 "
   style="fill:#4b4b4b"
   id="polygon10" />
</g>
</svg>
