<?xml version="1.0" encoding="UTF-8" standalone="no"?>
<svg
   xmlns:dc="http://purl.org/dc/elements/1.1/"
   xmlns:cc="http://creativecommons.org/ns#"
   xmlns:rdf="http://www.w3.org/1999/02/22-rdf-syntax-ns#"
   xmlns:svg="http://www.w3.org/2000/svg"
   xmlns="http://www.w3.org/2000/svg"
   xmlns:sodipodi="http://sodipodi.sourceforge.net/DTD/sodipodi-0.dtd"
   xmlns:inkscape="http://www.inkscape.org/namespaces/inkscape"
   height="450"
   width="1920"
   inkscape:version="1.0 (4035a4fb49, 2020-05-01)"
   sodipodi:docname="logo.svg"
   version="1.1"
   viewBox="0 0 1920 450"
   data-name="レイヤー 1"
   id="レイヤー_1">
  <metadata
     id="metadata63">
    <rdf:RDF>
      <cc:Work
         rdf:about="">
        <dc:format>image/svg+xml</dc:format>
        <dc:type
           rdf:resource="http://purl.org/dc/dcmitype/StillImage" />
        <dc:title />
      </cc:Work>
    </rdf:RDF>
  </metadata>
  <sodipodi:namedview
     inkscape:current-layer="レイヤー_1"
     inkscape:window-maximized="0"
     inkscape:window-y="0"
     inkscape:window-x="5"
     inkscape:cy="710.31436"
     inkscape:cx="990.80459"
     inkscape:zoom="0.2756407"
     showgrid="false"
     id="namedview61"
     inkscape:window-height="836"
     inkscape:window-width="1617"
     inkscape:pageshadow="2"
     inkscape:pageopacity="0"
     guidetolerance="10"
     gridtolerance="10"
     objecttolerance="10"
     borderopacity="1"
     bordercolor="#666666"
     pagecolor="#ffffff"
     inkscape:document-rotation="0" />
  <defs
     id="defs4">
    <style
       id="style2">.cls-1{fill:#00e96f;}.cls-2{fill:#00a99d;}.cls-3{fill:#fff;}.cls-4{fill:#ebd065;}.cls-5{fill:#00819d;}.cls-6{fill:#f7931e;}</style>
  </defs>
  <text
     id="text12" />
  <g
     id="g42">
    <rect
       class="cls-2"
       x="-305.54019"
       y="124.71512"
       width="340.22031"
       height="340.22031"
       transform="rotate(-70)"
       id="rect14"
       style="stroke-width:0.629676" />
    <polygon
       class="cls-3"
       points="956.52,58.92 698.07,339.29 1214.96,339.29 "
       id="polygon16"
       transform="matrix(0.62967611,0,0,0.62967611,-370.05399,6.956338)" />
    <polygon
       class="cls-3"
       points="1202.14,424.19 984.03,219.53 1026.05,162.41 1244.16,367.07 "
       id="polygon18"
       transform="matrix(0.62967611,0,0,0.62967611,-370.05399,6.956338)" />
    <polygon
       class="cls-3"
       points="663.59,363.05 888.1,167.43 930.36,229.29 705.84,424.91 "
       id="polygon20"
       transform="matrix(0.62967611,0,0,0.62967611,-370.05399,6.956338)" />
    <rect
       class="cls-3"
       x="104.38808"
       y="216.55663"
       width="259.01099"
       height="152.05418"
       id="rect22"
       style="stroke-width:0.629676" />
    <polygon
       class="cls-3"
       points="781.48,322.98 781.48,117.38 846.24,73.89 846.24,279.49 "
       id="polygon24"
       transform="matrix(0.62967611,0,0,0.62967611,-370.05399,6.956338)" />
    <polygon
       class="cls-4"
       points="767.07,571.35 1168.28,570.14 1117.22,698.46 "
       id="polygon26"
       transform="matrix(0.62967611,0,0,0.62967611,-370.05399,6.956338)" />
    <rect
       class="cls-4"
       x="193.73912"
       y="231.06436"
       width="88.431717"
       height="123.22132"
       id="rect28"
       style="stroke-width:0.629676" />
    <rect
       class="cls-3"
       x="201.71088"
       y="277.45261"
       width="20.294458"
       height="34.789604"
       id="rect30"
       style="stroke-width:0.629676" />
    <polygon
       class="cls-5"
       points="952.92,63.53 847.02,180.94 847.02,79.64 781.48,117.38 781.48,247.71 727.3,307.56 663.59,363.05 792.64,4.93 "
       id="polygon32"
       transform="matrix(0.62967611,0,0,0.62967611,-370.05399,6.956338)" />
    <polygon
       class="cls-5"
       points="607.85,512.66 663.59,363.05 705.84,424.91 754.93,384.69 754.93,565.42 "
       id="polygon34"
       transform="matrix(0.62967611,0,0,0.62967611,-370.05399,6.956338)" />
  </g>
  <g
     id="g56">
    <path
       class="cls-6"
       d="m 486.06837,191.35188 h 29.05605 a 2.0588288,2.0588288 0 0 1 2.05883,2.06713 v 67.11948 a 2.0671306,2.0671306 0 0 0 2.06713,2.06713 h 41.22638 a 2.0671306,2.0671306 0 0 0 2.06713,-2.06713 v -67.11948 a 2.0588288,2.0588288 0 0 1 2.06714,-2.06713 h 28.03494 a 2.0671306,2.0671306 0 0 1 2.06713,2.06713 v 169.16434 a 2.0754323,2.0754323 0 0 1 -2.06713,2.06713 h -28.01834 a 2.0671306,2.0671306 0 0 1 -2.06713,-2.06713 v -66.09007 a 2.0671306,2.0671306 0 0 0 -2.06713,-2.05883 h -41.21809 a 2.0671306,2.0671306 0 0 0 -2.06713,2.05883 v 66.09007 a 2.0671306,2.0671306 0 0 1 -2.05883,2.06713 h -29.05605 a 2.0754323,2.0754323 0 0 1 -2.06713,-2.06713 V 193.41901 a 2.0671306,2.0671306 0 0 1 2.04223,-2.06713 z"
       id="path36"
       style="stroke-width:0.830173" />
    <path
       class="cls-6"
       d="m 666.12457,364.99915 q -31.82883,0 -50.50772,-20.96187 -16.77779,-18.86153 -16.76949,-46.40666 0,-27.87721 17.11816,-47.27835 19.2019,-21.64261 51.71147,-21.64261 31.82883,0 50.50772,20.95357 16.7695,18.87813 16.7695,46.40666 0,27.88551 -17.11817,47.31986 -19.2019,21.6011 -51.71147,21.6094 z m 2.93881,-108.09682 q -18.85322,0 -29.88622,12.4526 -10.03679,11.26544 -10.03679,27.56174 0,15.77328 9.51378,26.51572 10.72583,11.96279 29.05605,11.96279 18.85323,0 29.88623,-12.45259 10.03679,-11.26545 10.03679,-27.56174 0,-15.77329 -9.51379,-26.52403 -10.71753,-11.95449 -29.05605,-11.95449 z"
       id="path38"
       style="stroke-width:0.830173" />
    <path
       class="cls-6"
       d="m 740.13449,230.09605 h 26.13384 a 2.0671306,2.0671306 0 0 1 2.06713,2.05883 v 75.32159 q 0,11.0579 9.1319,18.2638 a 35.024996,35.024996 0 0 0 42.11468,0.41509 q 8.90775,-6.82402 8.90775,-17.72419 v -76.27629 a 2.0588288,2.0588288 0 0 1 2.06713,-2.05883 h 27.52023 a 2.0588288,2.0588288 0 0 1 2.05883,2.05883 v 74.8982 q 0,23.69313 -20.57998,41.34261 -19.1936,16.60346 -41.33431,16.60346 -25.07953,0 -42.62938,-16.49554 -17.54986,-16.49553 -17.55816,-40.51244 v -75.83629 a 2.0588288,2.0588288 0 0 1 2.10034,-2.05883 z"
       id="path40"
       style="stroke-width:0.830173" />
    <path
       class="cls-6"
       d="M 866.22115,363.24748 V 336.8978 a 2.0505271,2.0505271 0 0 1 1.60223,-2.00902 32.775227,32.775227 0 0 0 9.55529,-3.57805 38.760774,38.760774 0 0 0 9.0821,-7.704 28.367009,28.367009 0 0 0 7.60438,-18.62078 q 0.52301,-10.95828 0.83017,-18.38833 c 0,-0.0415 0,-0.0747 0,-0.11623 q 1.21206,-12.07901 2.59014,-17.25929 a 52.732584,52.732584 0 0 1 7.08968,-15.40801 q 8.30173,-12.45259 18.16418,-18.36343 9.86246,-5.91083 22.5724,-6.36742 a 2.0754323,2.0754323 0 0 1 2.15845,2.06713 v 27.09684 a 2.0422254,2.0422254 0 0 1 -1.50261,1.98412 30.948847,30.948847 0 0 0 -16.66157,11.0662 22.721833,22.721833 0 0 0 -4.83991,9.53039 60.486399,60.486399 0 0 0 -1.03771,12.29486 v 6.7493 q 0,15.93932 -2.42411,24.90519 -2.4241,8.96587 -10.37716,18.87813 -9.1319,11.43148 -19.54227,16.53705 -9.5968,4.73198 -22.76334,5.08066 a 2.083734,2.083734 0 0 1 -2.10034,-2.02563 z"
       id="path42"
       style="stroke-width:0.830173" />
    <path
       class="cls-6"
       d="m 1059.0371,287.33647 a 2.0671306,2.0671306 0 0 0 1.9675,-2.70636 37.864187,37.864187 0 0 0 -13.6148,-18.91134 q -10.6345,-7.77872 -25.3369,-7.77872 -16.2631,0 -28.27569,11.67223 -12.0126,11.67223 -12.0209,27.58665 a 36.187238,36.187238 0 0 0 0.1743,4.15086 q 1.9343,17.12647 14.3869,26.98062 11.07459,8.81644 26.29159,8.81644 a 43.584078,43.584078 0 0 0 16.2548,-3.02183 33.622003,33.622003 0 0 0 11.4896,-7.55458 2.0671306,2.0671306 0 0 1 2.9471,0 l 16.8027,17.43364 a 2.0505271,2.0505271 0 0 1 0,2.8973 q -9.9039,9.63001 -20.6879,14.11294 -11.6224,4.84821 -26.8063,4.84821 -28.54129,0 -48.98019,-19.71661 -20.43884,-19.7166 -20.41394,-47.90928 0,-28.54134 19.80794,-48.68964 19.8079,-20.1483 48.19979,-20.10679 28.5414,0 49.8934,21.18602 21.352,21.18601 21.3271,49.37868 v 5.81121 a 2.2580703,2.2580703 0 0 1 0,0.40679 c -0.1411,0.72225 -0.2656,1.35318 -0.3653,1.90939 a 2.0671306,2.0671306 0 0 1 -2.0339,1.66035 h -95.83509 q -3.1131,0 -3.9765,-2.59844 a 23.053902,23.053902 0 0 1 -0.8302,-7.08968 v -6.2263 a 13.282767,13.282767 0 0 1 0.689,-4.93122 q 0.6808,-1.66035 3.3207,-1.66035 z"
       id="path44"
       style="stroke-width:0.830173" />
    <path
       class="cls-6"
       d="m 1189.9885,192.38129 a 2.0588288,2.0588288 0 0 1 2.0672,-2.06713 h 49.1628 a 52.815601,52.815601 0 0 1 38.0468,15.39141 q 15.9145,15.43291 15.9145,37.53212 0,22.64711 -15.3997,37.53211 a 63.284082,63.284082 0 0 1 -22.3068,13.66465 q -3.9848,1.37809 -15.6571,2.33279 -11.6722,0.9547 -18.9362,0.94639 v 0 a 2.0588288,2.0588288 0 0 0 -2.0588,2.07544 l 0.3237,62.09693 a 2.0754323,2.0754323 0 0 1 -2.0671,2.07543 h -26.9889 a 2.0671306,2.0671306 0 0 1 -2.0671,-2.06713 z m 31.1315,71.79336 a 2.0671306,2.0671306 0 0 0 2.0672,2.06713 h 19.6917 a 19.791322,19.791322 0 0 0 14.9431,-6.51686 22.057695,22.057695 0 0 0 6.1433,-15.70687 22.705229,22.705229 0 0 0 -6.1433,-15.88951 19.92415,19.92415 0 0 0 -15.3084,-6.64138 h -19.3762 a 2.0588288,2.0588288 0 0 0 -2.0672,2.06713 z"
       id="path46"
       style="stroke-width:0.830173" />
    <path
       class="cls-6"
       d="m 1365.7445,364.99915 q -31.8289,0 -50.5078,-20.96187 -16.7695,-18.86153 -16.7778,-46.40666 0,-27.87721 17.1265,-47.27835 19.2019,-21.64261 51.7115,-21.64261 31.8205,0 50.4994,20.95357 16.7778,18.87813 16.7778,46.40666 0,27.88551 -17.1182,47.31986 -19.2351,21.6011 -51.7114,21.6094 z m 2.9388,-108.09682 q -18.8533,0 -29.8863,12.4526 -10.0367,11.26544 -10.0367,27.56174 0,15.77328 9.5137,26.51572 10.7259,11.96279 29.0561,11.96279 18.8532,0 29.8862,-12.45259 10.0285,-11.26545 10.0368,-27.56174 0,-15.77329 -9.5138,-26.52403 -10.7673,-11.95449 -29.0892,-11.95449 z"
       id="path48"
       style="stroke-width:0.830173" />
    <path
       class="cls-6"
       d="m 1454.0832,228.36099 q -8.3018,0 -12.9673,-5.36292 a 18.587572,18.587572 0 0 1 -4.6739,-12.61863 17.325709,17.325709 0 0 1 4.5825,-12.11222 q 4.5826,-4.98104 13.0587,-4.98104 a 15.26688,15.26688 0 0 1 12.2782,5.53726 19.392839,19.392839 0 0 1 -0.2573,24.29916 q -4.4083,5.24669 -12.0209,5.23839 z m -12.9839,8.47606 h 25.2787 a 2.0588288,2.0588288 0 0 1 2.0588,2.06713 v 123.69577 a 2.0671306,2.0671306 0 0 1 -2.0588,2.06713 h -25.2787 a 2.0671306,2.0671306 0 0 1 -2.0589,-2.06713 V 238.90418 a 2.0588288,2.0588288 0 0 1 2.0589,-2.06713 z"
       id="path50"
       style="stroke-width:0.830173" />
    <path
       class="cls-6"
       d="m 1481.5702,364.99915 a 2.0754323,2.0754323 0 0 1 -2.0671,-2.06713 v -74.71556 q 0,-25.07953 18.0728,-42.81202 18.0729,-17.7325 43.5011,-17.72419 24.9052,0 42.5463,17.7906 17.6412,17.79061 17.6412,42.83692 v 74.63255 a 2.0671306,2.0671306 0 0 1 -2.0671,2.06713 h -27.1716 a 2.0671306,2.0671306 0 0 1 -2.0671,-2.06713 v -75.64536 q 0,-11.74694 -9.0821,-19.92415 a 30.849226,30.849226 0 0 0 -21.3603,-8.1938 28.674173,28.674173 0 0 0 -20.3227,8.03607 25.9263,25.9263 0 0 0 -8.5591,19.63359 v 76.08535 a 2.0671306,2.0671306 0 0 1 -2.0588,2.06713 z"
       id="path52"
       style="stroke-width:0.830173" />
    <path
       class="cls-6"
       d="m 1610.7617,191.86659 h 24.9052 a 2.0671306,2.0671306 0 0 1 2.0588,2.06713 v 30.63338 a 2.0754323,2.0754323 0 0 0 2.0671,2.06713 h 15.9311 a 2.0588288,2.0588288 0 0 1 2.0671,2.06713 v 26.30818 a 2.0671306,2.0671306 0 0 1 -2.0671,2.06713 h -15.9311 a 2.0671306,2.0671306 0 0 0 -2.0671,2.05883 v 55.48045 a 18.878132,18.878132 0 0 0 1.6604,8.1523 26.225163,26.225163 0 0 0 5.2965,7.12289 22.215427,22.215427 0 0 0 16.2547,6.94024 h 2.7811 a 2.0588288,2.0588288 0 0 1 2.0589,2.05883 v 24.07502 a 2.0671306,2.0671306 0 0 1 -2.0589,2.06713 h -2.6067 a 48.714547,48.714547 0 0 1 -15.2171,-2.43241 q -9.1817,-2.93881 -20.2396,-10.5681 -6.7493,-4.68218 -11.6224,-14.56123 a 49.876789,49.876789 0 0 1 -5.3629,-22.18223 V 193.93372 a 2.0754323,2.0754323 0 0 1 2.092,-2.06713 z"
       id="path54"
       style="stroke-width:0.830173" />
    <path
       class="cls-6"
       d="m 1777.5102,287.33647 a 2.0671306,2.0671306 0 0 0 1.9675,-2.70636 37.864187,37.864187 0 0 0 -13.6148,-18.91134 q -10.6345,-7.77872 -25.3369,-7.77872 -16.2631,0 -28.2757,11.67223 -12.0126,11.67223 -12.0209,27.58665 a 36.187238,36.187238 0 0 0 0.1744,4.15086 q 1.8928,17.12647 14.3537,26.98062 11.0745,8.81644 26.2915,8.81644 a 43.584078,43.584078 0 0 0 16.2548,-3.02183 33.622003,33.622003 0 0 0 11.5228,-7.54627 2.0671306,2.0671306 0 0 1 2.9471,0 l 16.8027,17.43363 a 2.0505271,2.0505271 0 0 1 0,2.8973 66.696093,66.696093 0 0 1 -20.6879,14.11294 q -11.6224,4.84821 -26.8063,4.84821 -28.5413,0 -48.9802,-19.71661 -20.4388,-19.7166 -20.4139,-47.90928 0,-28.54134 19.8079,-48.68964 19.8079,-20.14829 48.15,-20.14829 28.5414,0 49.8934,21.18601 21.3521,21.18601 21.3355,49.41189 v 5.81121 a 2.2580703,2.2580703 0 0 1 0,0.40679 c -0.1412,0.72225 -0.2657,1.35318 -0.3653,1.90939 a 2.0671306,2.0671306 0 0 1 -2.0339,1.66035 h -95.8352 q -3.1131,0 -3.9765,-2.59844 a 23.053902,23.053902 0 0 1 -0.8302,-7.08968 v -6.2263 a 13.282767,13.282767 0 0 1 0.6891,-4.93122 q 0.689,-1.66035 3.3206,-1.66035 z"
       id="path56"
       style="stroke-width:0.830173" />
    <path
       class="cls-6"
       d="m 1847.0206,364.98255 -28.2259,-0.14944 a 2.0671306,2.0671306 0 0 1 -2.0588,-2.06713 V 289.4119 q 0,-17.2842 6.3176,-29.88622 6.3176,-12.60203 20.1483,-21.96638 a 67.484757,67.484757 0 0 1 15.9144,-8.21041 50.640548,50.640548 0 0 1 16.2548,-2.49052 c 1.4943,0 3.3207,0.083 5.3629,0.25736 1.6023,0.13283 3.3871,0.35697 5.338,0.66414 a 2.0671306,2.0671306 0 0 1 1.7517,2.04222 v 26.18366 a 2.0754323,2.0754323 0 0 1 -2.4905,2.01732 33.55559,33.55559 0 0 0 -6.492,-0.62263 q -9.0073,0 -17.3008,6.05196 a 31.762416,31.762416 0 0 0 -9.2481,9.86245 25.096127,25.096127 0 0 0 -3.2045,12.80127 v 76.78269 a 2.0671306,2.0671306 0 0 1 -2.0671,2.08374 z"
       id="path58"
       style="stroke-width:0.830173" />
  </g>
</svg>
