<?xml version="1.0" encoding="UTF-8" standalone="no"?>
<svg
   xmlns:dc="http://purl.org/dc/elements/1.1/"
   xmlns:cc="http://creativecommons.org/ns#"
   xmlns:rdf="http://www.w3.org/1999/02/22-rdf-syntax-ns#"
   xmlns:svg="http://www.w3.org/2000/svg"
   xmlns="http://www.w3.org/2000/svg"
   xmlns:sodipodi="http://sodipodi.sourceforge.net/DTD/sodipodi-0.dtd"
   xmlns:inkscape="http://www.inkscape.org/namespaces/inkscape"
   id="レイヤー_1"
   data-name="レイヤー 1"
   viewBox="0 0 50 50"
   version="1.1"
   sodipodi:docname="logo-icon.svg"
   width="50"
   height="50"
   inkscape:version="1.0 (4035a4fb49, 2020-05-01)">
  <metadata
     id="metadata33">
    <rdf:RDF>
      <cc:Work
         rdf:about="">
        <dc:format>image/svg+xml</dc:format>
        <dc:type
           rdf:resource="http://purl.org/dc/dcmitype/StillImage" />
        <dc:title />
      </cc:Work>
    </rdf:RDF>
  </metadata>
  <sodipodi:namedview
     inkscape:document-rotation="0"
     pagecolor="#ffffff"
     bordercolor="#666666"
     borderopacity="1"
     objecttolerance="10"
     gridtolerance="10"
     guidetolerance="10"
     inkscape:pageopacity="0"
     inkscape:pageshadow="2"
     inkscape:window-width="1790"
     inkscape:window-height="840"
     id="namedview31"
     showgrid="false"
     inkscape:zoom="8.8205024"
     inkscape:cx="24.912942"
     inkscape:cy="20.04696"
     inkscape:window-x="5"
     inkscape:window-y="0"
     inkscape:window-maximized="0"
     inkscape:current-layer="レイヤー_1" />
  <defs
     id="defs4">
    <style
       id="style2">.cls-1{fill:#00a99d;}.cls-2{fill:#fff;}.cls-3{fill:#ebd065;}.cls-4{fill:#00819d;}</style>
  </defs>
  <text
     id="text6" />
  <g
     id="g30">
    <rect
       style="stroke-width:0.0714423"
       id="rect8"
       transform="rotate(-70)"
       height="38.600937"
       width="38.600937"
       y="12.860207"
       x="-34.333603"
       class="cls-1" />
    <polygon
       transform="matrix(0.0714422,0,0,0.0714422,-41.782776,-15.395789)"
       id="polygon10"
       points="1196.75,555.29 938.3,274.92 679.85,555.29 "
       class="cls-2" />
    <polygon
       transform="matrix(0.0714422,0,0,0.0714422,-41.782776,-15.395789)"
       id="polygon12"
       points="965.82,435.53 1007.84,378.41 1225.94,583.07 1183.92,640.19 "
       class="cls-2" />
    <polygon
       transform="matrix(0.0714422,0,0,0.0714422,-41.782776,-15.395789)"
       id="polygon14"
       points="869.89,383.43 912.14,445.29 687.63,640.91 645.37,579.05 "
       class="cls-2" />
    <rect
       style="stroke-width:0.0714423"
       id="rect16"
       height="17.251863"
       width="29.387037"
       y="23.816702"
       x="10.745805"
       class="cls-2" />
    <polygon
       transform="matrix(0.0714422,0,0,0.0714422,-41.782776,-15.395789)"
       id="polygon18"
       points="763.26,333.38 828.03,289.89 828.03,495.49 763.26,538.98 "
       class="cls-2" />
    <polygon
       transform="matrix(0.0714422,0,0,0.0714422,-41.782776,-15.395789)"
       id="polygon20"
       points="1099,914.46 748.86,787.35 1150.06,786.14 "
       class="cls-3" />
    <rect
       style="stroke-width:0.0714423"
       id="rect22"
       height="13.980525"
       width="10.033344"
       y="25.462732"
       x="20.882742"
       class="cls-3" />
    <rect
       style="stroke-width:0.0714423"
       id="rect24"
       height="3.9471817"
       width="2.302582"
       y="30.72587"
       x="21.787203"
       class="cls-2" />
    <polygon
       transform="matrix(0.0714422,0,0,0.0714422,-41.782776,-15.395789)"
       id="polygon26"
       points="709.09,523.57 645.37,579.05 774.43,220.93 934.71,279.53 828.8,396.94 828.8,295.64 763.26,333.38 763.26,463.71 "
       class="cls-4" />
    <polygon
       transform="matrix(0.0714422,0,0,0.0714422,-41.782776,-15.395789)"
       id="polygon28"
       points="589.63,728.66 645.37,579.05 687.63,640.91 736.72,600.69 736.72,781.42 "
       class="cls-4" />
  </g>
</svg>
